<svg xmlns="http://www.w3.org/2000/svg" width="182.93" height="35" viewBox="0 0 182.93 35"><rect class="svg__rect" x="0" y="0" width="87.68" height="35" fill="#31C4F3"/><rect class="svg__rect" x="85.68" y="0" width="97.25" height="35" fill="#389AD5"/><path class="svg__text" d="M16.67 22L14.22 22L14.22 13.47L16.74 13.47Q17.87 13.47 18.74 13.97Q19.62 14.48 20.10 15.40Q20.58 16.33 20.58 17.52L20.58 17.52L20.58 17.95Q20.58 19.16 20.10 20.08Q19.61 21.00 18.72 21.50Q17.83 22 16.67 22L16.67 22ZM15.70 14.66L15.70 20.82L16.67 20.82Q17.83 20.82 18.46 20.09Q19.08 19.36 19.09 17.99L19.09 17.99L19.09 17.52Q19.09 16.13 18.49 15.40Q17.89 14.66 16.74 14.66L16.74 14.66L15.70 14.66ZM24.78 18.00L24.78 18.00L24.78 17.52Q24.78 16.28 25.22 15.32Q25.66 14.37 26.47 13.86Q27.27 13.35 28.31 13.35Q29.36 13.35 30.16 13.85Q30.97 14.35 31.41 15.29Q31.85 16.23 31.85 17.48L31.85 17.48L31.85 17.96Q31.85 19.21 31.42 20.16Q30.99 21.10 30.18 21.61Q29.38 22.12 28.33 22.12L28.33 22.12Q27.29 22.12 26.48 21.61Q25.67 21.10 25.22 20.17Q24.78 19.23 24.78 18.00ZM26.26 17.46L26.26 17.96Q26.26 19.36 26.81 20.13Q27.35 20.90 28.33 20.90L28.33 20.90Q29.31 20.90 29.84 20.15Q30.37 19.40 30.37 17.96L30.37 17.96L30.37 17.51Q30.37 16.09 29.84 15.34Q29.30 14.58 28.31 14.58L28.31 14.58Q27.35 14.58 26.81 15.33Q26.27 16.09 26.26 17.46L26.26 17.46ZM36.05 18.19L36.05 18.19L36.05 17.39Q36.05 16.19 36.48 15.27Q36.90 14.35 37.70 13.85Q38.50 13.35 39.55 13.35L39.55 13.35Q40.97 13.35 41.83 14.12Q42.69 14.89 42.83 16.29L42.83 16.29L41.35 16.29Q41.25 15.37 40.82 14.96Q40.39 14.55 39.55 14.55L39.55 14.55Q38.59 14.55 38.07 15.26Q37.55 15.96 37.54 17.33L37.54 17.33L37.54 18.09Q37.54 19.47 38.03 20.20Q38.53 20.92 39.48 20.92L39.48 20.92Q40.36 20.92 40.80 20.53Q41.23 20.14 41.35 19.22L41.35 19.22L42.83 19.22Q42.70 20.59 41.82 21.35Q40.94 22.12 39.48 22.12L39.48 22.12Q38.46 22.12 37.69 21.63Q36.91 21.15 36.49 20.26Q36.07 19.37 36.05 18.19ZM48.62 22L47.14 22L47.14 13.47L48.62 13.47L48.62 17.47L49.44 16.46L51.94 13.47L53.73 13.47L50.56 17.25L53.91 22L52.16 22L49.59 18.31L48.62 19.34L48.62 22ZM63.27 22L57.69 22L57.69 13.47L63.23 13.47L63.23 14.66L59.18 14.66L59.18 17.02L62.68 17.02L62.68 18.19L59.18 18.19L59.18 20.82L63.27 20.82L63.27 22ZM68.95 22L67.47 22L67.47 13.47L70.47 13.47Q71.94 13.47 72.75 14.13Q73.55 14.79 73.55 16.05L73.55 16.05Q73.55 16.90 73.14 17.48Q72.72 18.06 71.98 18.37L71.98 18.37L73.90 21.92L73.90 22L72.31 22L70.60 18.71L68.95 18.71L68.95 22ZM68.95 14.66L68.95 17.52L70.47 17.52Q71.22 17.52 71.64 17.15Q72.07 16.77 72.07 16.11L72.07 16.11Q72.07 15.43 71.68 15.05Q71.29 14.68 70.51 14.66L70.51 14.66L68.95 14.66Z" fill="#FFFFFF"/><path class="svg__text" d="M103.84 22L99.87 22L99.87 13.60L103.84 13.60Q105.22 13.60 106.29 14.12Q107.36 14.63 107.95 15.58Q108.53 16.53 108.53 17.80L108.53 17.80Q108.53 19.07 107.95 20.02Q107.36 20.97 106.29 21.48Q105.22 22 103.84 22L103.84 22ZM102.25 15.50L102.25 20.10L103.75 20.10Q104.82 20.10 105.48 19.49Q106.13 18.88 106.13 17.80L106.13 17.80Q106.13 16.72 105.48 16.11Q104.82 15.50 103.75 15.50L103.75 15.50L102.25 15.50ZM112.18 20.93L112.18 20.93L113.48 19.40Q114.15 20.27 114.92 20.27L114.92 20.27Q114.93 20.27 114.93 20.27L114.93 20.27Q115.45 20.27 115.72 19.96Q115.99 19.65 115.99 19.05L115.99 19.05L115.99 15.44L113.09 15.44L113.09 13.60L118.34 13.60L118.34 18.91Q118.34 20.54 117.52 21.36Q116.70 22.17 115.10 22.17L115.10 22.17Q114.18 22.17 113.42 21.85Q112.66 21.53 112.18 20.93ZM124.85 22L122.42 22L126.13 13.60L128.47 13.60L132.19 22L129.72 22L129.06 20.37L125.51 20.37L124.85 22ZM127.28 15.93L126.20 18.61L128.36 18.61L127.28 15.93ZM138.67 22L136.34 22L136.34 13.60L138.30 13.60L142.01 18.07L142.01 13.60L144.33 13.60L144.33 22L142.38 22L138.67 17.52L138.67 22ZM149.07 17.80L149.07 17.80Q149.07 16.54 149.67 15.54Q150.26 14.55 151.33 13.99Q152.40 13.43 153.74 13.43L153.74 13.43Q154.92 13.43 155.86 13.83Q156.80 14.22 157.42 14.97L157.42 14.97L155.91 16.33Q155.06 15.40 153.89 15.40L153.89 15.40Q153.87 15.40 153.87 15.40L153.87 15.40Q152.79 15.40 152.13 16.06Q151.47 16.71 151.47 17.80L151.47 17.80Q151.47 18.50 151.77 19.04Q152.07 19.59 152.61 19.89Q153.15 20.20 153.84 20.20L153.84 20.20Q154.53 20.20 155.13 19.93L155.13 19.93L155.13 17.62L157.23 17.62L157.23 21.10Q156.50 21.61 155.57 21.89Q154.64 22.17 153.70 22.17L153.70 22.17Q152.38 22.17 151.32 21.61Q150.26 21.05 149.67 20.05Q149.07 19.06 149.07 17.80ZM161.79 17.80L161.79 17.80Q161.79 16.55 162.39 15.55Q163.00 14.56 164.06 14.00Q165.12 13.43 166.45 13.43L166.45 13.43Q167.78 13.43 168.85 14.00Q169.91 14.56 170.52 15.55Q171.12 16.55 171.12 17.80L171.12 17.80Q171.12 19.05 170.52 20.04Q169.91 21.04 168.85 21.60Q167.79 22.17 166.45 22.17L166.45 22.17Q165.12 22.17 164.06 21.60Q163.00 21.04 162.39 20.04Q161.79 19.05 161.79 17.80ZM164.19 17.80L164.19 17.80Q164.19 18.51 164.49 19.05Q164.79 19.60 165.31 19.90Q165.82 20.20 166.45 20.20L166.45 20.20Q167.09 20.20 167.61 19.90Q168.12 19.60 168.42 19.05Q168.72 18.51 168.72 17.80L168.72 17.80Q168.72 17.09 168.42 16.54Q168.12 16 167.61 15.70Q167.09 15.40 166.45 15.40L166.45 15.40Q165.82 15.40 165.30 15.70Q164.79 16 164.49 16.54Q164.19 17.09 164.19 17.80Z" fill="#FFFFFF" x="98.68"/></svg>