<svg xmlns="http://www.w3.org/2000/svg" width="228.3" height="35" viewBox="0 0 228.3 35"><rect class="svg__rect" x="0" y="0" width="88.08" height="35" fill="#5D9741"/><rect class="svg__rect" x="86.08" y="0" width="142.22000000000003" height="35" fill="#C1D72F"/><path class="svg__text" d="M15.70 22L14.22 22L14.22 13.47L17.48 13.47Q18.91 13.47 19.75 14.21Q20.59 14.96 20.59 16.18L20.59 16.18Q20.59 17.44 19.77 18.13Q18.95 18.83 17.46 18.83L17.46 18.83L15.70 18.83L15.70 22ZM15.70 14.66L15.70 17.64L17.48 17.64Q18.27 17.64 18.69 17.27Q19.10 16.90 19.10 16.19L19.10 16.19Q19.10 15.50 18.68 15.09Q18.26 14.68 17.52 14.66L17.52 14.66L15.70 14.66ZM26.91 18.86L24.05 13.47L25.70 13.47L27.66 17.51L29.62 13.47L31.26 13.47L28.40 18.86L28.40 22L26.91 22L26.91 18.86ZM36.86 14.66L34.22 14.66L34.22 13.47L40.99 13.47L40.99 14.66L38.33 14.66L38.33 22L36.86 22L36.86 14.66ZM46.23 22L44.74 22L44.74 13.47L46.23 13.47L46.23 17.02L50.04 17.02L50.04 13.47L51.52 13.47L51.52 22L50.04 22L50.04 18.21L46.23 18.21L46.23 22ZM55.99 18.00L55.99 18.00L55.99 17.52Q55.99 16.28 56.43 15.32Q56.87 14.37 57.68 13.86Q58.48 13.35 59.53 13.35Q60.57 13.35 61.38 13.85Q62.18 14.35 62.62 15.29Q63.06 16.23 63.07 17.48L63.07 17.48L63.07 17.96Q63.07 19.21 62.63 20.16Q62.20 21.10 61.39 21.61Q60.59 22.12 59.54 22.12L59.54 22.12Q58.50 22.12 57.69 21.61Q56.88 21.10 56.44 20.17Q55.99 19.23 55.99 18.00ZM57.47 17.46L57.47 17.96Q57.47 19.36 58.02 20.13Q58.57 20.90 59.54 20.90L59.54 20.90Q60.52 20.90 61.05 20.15Q61.58 19.40 61.58 17.96L61.58 17.96L61.58 17.51Q61.58 16.09 61.05 15.34Q60.51 14.58 59.53 14.58L59.53 14.58Q58.57 14.58 58.02 15.33Q57.48 16.09 57.47 17.46L57.47 17.46ZM69.01 22L67.53 22L67.53 13.47L69.01 13.47L72.83 19.54L72.83 13.47L74.30 13.47L74.30 22L72.82 22L69.01 15.95L69.01 22Z" fill="#FFFFFF"/><path class="svg__text" d="M102.65 22L100.27 22L100.27 13.60L104.11 13.60Q105.25 13.60 106.09 13.98Q106.93 14.35 107.39 15.06Q107.84 15.76 107.84 16.71L107.84 16.71Q107.84 17.66 107.39 18.35Q106.93 19.05 106.09 19.42Q105.25 19.80 104.11 19.80L104.11 19.80L102.65 19.80L102.65 22ZM102.65 15.47L102.65 17.93L103.97 17.93Q104.70 17.93 105.07 17.61Q105.44 17.29 105.44 16.71L105.44 16.71Q105.44 16.12 105.07 15.80Q104.70 15.47 103.97 15.47L103.97 15.47L102.65 15.47ZM112.17 17.80L112.17 17.80Q112.17 16.55 112.77 15.55Q113.38 14.56 114.44 14.00Q115.50 13.43 116.83 13.43L116.83 13.43Q118.16 13.43 119.23 14.00Q120.29 14.56 120.90 15.55Q121.50 16.55 121.50 17.80L121.50 17.80Q121.50 19.05 120.90 20.04Q120.29 21.04 119.23 21.60Q118.17 22.17 116.83 22.17L116.83 22.17Q115.50 22.17 114.44 21.60Q113.38 21.04 112.77 20.04Q112.17 19.05 112.17 17.80ZM114.56 17.80L114.56 17.80Q114.56 18.51 114.87 19.05Q115.17 19.60 115.68 19.90Q116.20 20.20 116.83 20.20L116.83 20.20Q117.47 20.20 117.99 19.90Q118.50 19.60 118.80 19.05Q119.10 18.51 119.10 17.80L119.10 17.80Q119.10 17.09 118.80 16.54Q118.50 16 117.99 15.70Q117.47 15.40 116.83 15.40L116.83 15.40Q116.19 15.40 115.68 15.70Q115.17 16 114.87 16.54Q114.56 17.09 114.56 17.80ZM125.64 21.24L125.64 21.24L126.42 19.49Q126.99 19.86 127.73 20.09Q128.47 20.32 129.20 20.32L129.20 20.32Q130.56 20.32 130.57 19.64L130.57 19.64Q130.57 19.28 130.18 19.11Q129.79 18.93 128.92 18.74L128.92 18.74Q127.97 18.53 127.34 18.30Q126.70 18.06 126.25 17.55Q125.79 17.03 125.79 16.16L125.79 16.16Q125.79 15.39 126.21 14.77Q126.63 14.15 127.46 13.79Q128.30 13.43 129.51 13.43L129.51 13.43Q130.33 13.43 131.14 13.62Q131.94 13.80 132.56 14.17L132.56 14.17L131.83 15.93Q130.63 15.28 129.49 15.28L129.49 15.28Q128.79 15.28 128.46 15.49Q128.14 15.70 128.14 16.04L128.14 16.04Q128.14 16.37 128.52 16.54Q128.91 16.71 129.76 16.89L129.76 16.89Q130.72 17.10 131.35 17.33Q131.98 17.56 132.44 18.07Q132.90 18.58 132.90 19.46L132.90 19.46Q132.90 20.21 132.49 20.83Q132.07 21.44 131.23 21.80Q130.39 22.17 129.18 22.17L129.18 22.17Q128.16 22.17 127.20 21.92Q126.24 21.67 125.64 21.24ZM139.27 15.48L136.69 15.48L136.69 13.60L144.21 13.60L144.21 15.48L141.65 15.48L141.65 22L139.27 22L139.27 15.48ZM148.16 17.80L148.16 17.80Q148.16 16.54 148.75 15.54Q149.35 14.55 150.42 13.99Q151.49 13.43 152.83 13.43L152.83 13.43Q154.01 13.43 154.95 13.83Q155.89 14.22 156.51 14.97L156.51 14.97L154.99 16.33Q154.15 15.40 152.97 15.40L152.97 15.40Q152.96 15.40 152.96 15.40L152.96 15.40Q151.88 15.40 151.22 16.06Q150.55 16.71 150.55 17.80L150.55 17.80Q150.55 18.50 150.85 19.04Q151.16 19.59 151.70 19.89Q152.23 20.20 152.93 20.20L152.93 20.20Q153.62 20.20 154.22 19.93L154.22 19.93L154.22 17.62L156.31 17.62L156.31 21.10Q155.59 21.61 154.66 21.89Q153.72 22.17 152.79 22.17L152.79 22.17Q151.47 22.17 150.41 21.61Q149.35 21.05 148.75 20.05Q148.16 19.06 148.16 17.80ZM163.68 22L161.30 22L161.30 13.60L165.15 13.60Q166.29 13.60 167.13 13.98Q167.97 14.35 168.42 15.06Q168.88 15.76 168.88 16.71L168.88 16.71Q168.88 17.62 168.45 18.30Q168.03 18.98 167.23 19.36L167.23 19.36L169.05 22L166.50 22L164.98 19.77L163.68 19.77L163.68 22ZM163.68 15.47L163.68 17.93L165.00 17.93Q165.73 17.93 166.11 17.61Q166.48 17.29 166.48 16.71L166.48 16.71Q166.48 16.12 166.11 15.79Q165.73 15.47 165.00 15.47L165.00 15.47L163.68 15.47ZM180.41 22L173.67 22L173.67 13.60L180.26 13.60L180.26 15.44L176.02 15.44L176.02 16.85L179.76 16.85L179.76 18.63L176.02 18.63L176.02 20.17L180.41 20.17L180.41 22ZM184.63 21.24L184.63 21.24L185.41 19.49Q185.97 19.86 186.72 20.09Q187.46 20.32 188.18 20.32L188.18 20.32Q189.55 20.32 189.55 19.64L189.55 19.64Q189.55 19.28 189.16 19.11Q188.77 18.93 187.91 18.74L187.91 18.74Q186.96 18.53 186.32 18.30Q185.69 18.06 185.23 17.55Q184.78 17.03 184.78 16.16L184.78 16.16Q184.78 15.39 185.20 14.77Q185.62 14.15 186.45 13.79Q187.29 13.43 188.49 13.43L188.49 13.43Q189.32 13.43 190.12 13.62Q190.93 13.80 191.55 14.17L191.55 14.17L190.81 15.93Q189.61 15.28 188.48 15.28L188.48 15.28Q187.77 15.28 187.45 15.49Q187.13 15.70 187.13 16.04L187.13 16.04Q187.13 16.37 187.51 16.54Q187.89 16.71 188.74 16.89L188.74 16.89Q189.71 17.10 190.34 17.33Q190.97 17.56 191.43 18.07Q191.89 18.58 191.89 19.46L191.89 19.46Q191.89 20.21 191.47 20.83Q191.05 21.44 190.21 21.80Q189.37 22.17 188.17 22.17L188.17 22.17Q187.15 22.17 186.19 21.92Q185.23 21.67 184.63 21.24ZM196.04 17.80L196.04 17.80Q196.04 16.55 196.64 15.55Q197.25 14.56 198.31 14.00Q199.37 13.43 200.70 13.43L200.70 13.43Q202.03 13.43 203.10 14.00Q204.16 14.56 204.77 15.55Q205.37 16.55 205.37 17.80L205.37 17.80Q205.37 19.22 204.60 20.30Q203.83 21.39 202.52 21.85L202.52 21.85Q202.76 22.12 202.99 22.23Q203.22 22.33 203.50 22.33L203.50 22.33Q204.21 22.33 204.78 21.75L204.78 21.75L205.81 22.97Q205.39 23.49 204.78 23.76Q204.17 24.03 203.45 24.03L203.45 24.03Q202.75 24.03 202.19 23.85Q201.63 23.67 201.06 23.25Q200.49 22.84 199.78 22.09L199.78 22.09Q198.69 21.91 197.84 21.31Q196.98 20.72 196.51 19.81Q196.04 18.89 196.04 17.80ZM198.44 17.80L198.44 17.80Q198.44 18.51 198.74 19.05Q199.04 19.60 199.55 19.90Q200.07 20.20 200.70 20.20L200.70 20.20Q201.34 20.20 201.86 19.90Q202.37 19.60 202.67 19.05Q202.97 18.51 202.97 17.80L202.97 17.80Q202.97 17.09 202.67 16.54Q202.37 16 201.86 15.70Q201.34 15.40 200.70 15.40L200.70 15.40Q200.06 15.40 199.55 15.70Q199.04 16 198.74 16.54Q198.44 17.09 198.44 17.80ZM216.49 22L210.10 22L210.10 13.60L212.48 13.60L212.48 20.11L216.49 20.11L216.49 22Z" fill="#FFFFFF" x="99.08"/></svg>