<svg xmlns="http://www.w3.org/2000/svg" width="183.33" height="35" viewBox="0 0 183.33 35"><rect class="svg__rect" x="0" y="0" width="88.08" height="35" fill="#5D9741"/><rect class="svg__rect" x="86.08" y="0" width="97.25000000000001" height="35" fill="#C1D72F"/><path class="svg__text" d="M15.70 22L14.22 22L14.22 13.47L17.48 13.47Q18.91 13.47 19.75 14.21Q20.59 14.96 20.59 16.18L20.59 16.18Q20.59 17.44 19.77 18.13Q18.95 18.83 17.46 18.83L17.46 18.83L15.70 18.83L15.70 22ZM15.70 14.66L15.70 17.64L17.48 17.64Q18.27 17.64 18.69 17.27Q19.10 16.90 19.10 16.19L19.10 16.19Q19.10 15.50 18.68 15.09Q18.26 14.68 17.52 14.66L17.52 14.66L15.70 14.66ZM26.91 18.86L24.05 13.47L25.70 13.47L27.66 17.51L29.62 13.47L31.26 13.47L28.40 18.86L28.40 22L26.91 22L26.91 18.86ZM36.86 14.66L34.22 14.66L34.22 13.47L40.99 13.47L40.99 14.66L38.33 14.66L38.33 22L36.86 22L36.86 14.66ZM46.23 22L44.74 22L44.74 13.47L46.23 13.47L46.23 17.02L50.04 17.02L50.04 13.47L51.52 13.47L51.52 22L50.04 22L50.04 18.21L46.23 18.21L46.23 22ZM55.99 18.00L55.99 18.00L55.99 17.52Q55.99 16.28 56.43 15.32Q56.87 14.37 57.68 13.86Q58.48 13.35 59.53 13.35Q60.57 13.35 61.38 13.85Q62.18 14.35 62.62 15.29Q63.06 16.23 63.07 17.48L63.07 17.48L63.07 17.96Q63.07 19.21 62.63 20.16Q62.20 21.10 61.39 21.61Q60.59 22.12 59.54 22.12L59.54 22.12Q58.50 22.12 57.69 21.61Q56.88 21.10 56.44 20.17Q55.99 19.23 55.99 18.00ZM57.47 17.46L57.47 17.96Q57.47 19.36 58.02 20.13Q58.57 20.90 59.54 20.90L59.54 20.90Q60.52 20.90 61.05 20.15Q61.58 19.40 61.58 17.96L61.58 17.96L61.58 17.51Q61.58 16.09 61.05 15.34Q60.51 14.58 59.53 14.58L59.53 14.58Q58.57 14.58 58.02 15.33Q57.48 16.09 57.47 17.46L57.47 17.46ZM69.01 22L67.53 22L67.53 13.47L69.01 13.47L72.83 19.54L72.83 13.47L74.30 13.47L74.30 22L72.82 22L69.01 15.95L69.01 22Z" fill="#FFFFFF"/><path class="svg__text" d="M104.24 22L100.27 22L100.27 13.60L104.24 13.60Q105.62 13.60 106.69 14.12Q107.76 14.63 108.35 15.58Q108.93 16.53 108.93 17.80L108.93 17.80Q108.93 19.07 108.35 20.02Q107.76 20.97 106.69 21.48Q105.62 22 104.24 22L104.24 22ZM102.65 15.50L102.65 20.10L104.15 20.10Q105.22 20.10 105.88 19.49Q106.53 18.88 106.53 17.80L106.53 17.80Q106.53 16.72 105.88 16.11Q105.22 15.50 104.15 15.50L104.15 15.50L102.65 15.50ZM112.58 20.93L112.58 20.93L113.88 19.40Q114.55 20.27 115.32 20.27L115.32 20.27Q115.33 20.27 115.33 20.27L115.33 20.27Q115.85 20.27 116.12 19.96Q116.39 19.65 116.39 19.05L116.39 19.05L116.39 15.44L113.49 15.44L113.49 13.60L118.74 13.60L118.74 18.91Q118.74 20.54 117.92 21.36Q117.10 22.17 115.50 22.17L115.50 22.17Q114.58 22.17 113.82 21.85Q113.06 21.53 112.58 20.93ZM125.25 22L122.82 22L126.53 13.60L128.87 13.60L132.59 22L130.12 22L129.46 20.37L125.91 20.37L125.25 22ZM127.68 15.93L126.60 18.61L128.76 18.61L127.68 15.93ZM139.07 22L136.74 22L136.74 13.60L138.70 13.60L142.41 18.07L142.41 13.60L144.73 13.60L144.73 22L142.78 22L139.07 17.52L139.07 22ZM149.47 17.80L149.47 17.80Q149.47 16.54 150.07 15.54Q150.66 14.55 151.73 13.99Q152.80 13.43 154.14 13.43L154.14 13.43Q155.32 13.43 156.26 13.83Q157.20 14.22 157.82 14.97L157.82 14.97L156.31 16.33Q155.46 15.40 154.29 15.40L154.29 15.40Q154.27 15.40 154.27 15.40L154.27 15.40Q153.19 15.40 152.53 16.06Q151.87 16.71 151.87 17.80L151.87 17.80Q151.87 18.50 152.17 19.04Q152.47 19.59 153.01 19.89Q153.55 20.20 154.24 20.20L154.24 20.20Q154.93 20.20 155.53 19.93L155.53 19.93L155.53 17.62L157.63 17.62L157.63 21.10Q156.90 21.61 155.97 21.89Q155.04 22.17 154.10 22.17L154.10 22.17Q152.78 22.17 151.72 21.61Q150.66 21.05 150.07 20.05Q149.47 19.06 149.47 17.80ZM162.19 17.80L162.19 17.80Q162.19 16.55 162.79 15.55Q163.40 14.56 164.46 14.00Q165.52 13.43 166.85 13.43L166.85 13.43Q168.18 13.43 169.25 14.00Q170.31 14.56 170.92 15.55Q171.52 16.55 171.52 17.80L171.52 17.80Q171.52 19.05 170.92 20.04Q170.31 21.04 169.25 21.60Q168.19 22.17 166.85 22.17L166.85 22.17Q165.52 22.17 164.46 21.60Q163.40 21.04 162.79 20.04Q162.19 19.05 162.19 17.80ZM164.59 17.80L164.59 17.80Q164.59 18.51 164.89 19.05Q165.19 19.60 165.71 19.90Q166.22 20.20 166.85 20.20L166.85 20.20Q167.49 20.20 168.01 19.90Q168.52 19.60 168.82 19.05Q169.12 18.51 169.12 17.80L169.12 17.80Q169.12 17.09 168.82 16.54Q168.52 16 168.01 15.70Q167.49 15.40 166.85 15.40L166.85 15.40Q166.22 15.40 165.70 15.70Q165.19 16 164.89 16.54Q164.59 17.09 164.59 17.80Z" fill="#FFFFFF" x="99.08"/></svg>